<svg width="24" height="25" viewBox="0 0 24 25" fill="none" xmlns="http://www.w3.org/2000/svg">
<path d="M21.5 13.6538C22.1373 13.6538 22.6538 13.1373 22.6538 12.5C22.6538 11.8627 22.1373 11.3462 21.5 11.3462V13.6538ZM0.684107 11.6841C0.233503 12.1347 0.233503 12.8653 0.684107 13.3159L8.02714 20.6589C8.47774 21.1095 9.20832 21.1095 9.65892 20.6589C10.1095 20.2083 10.1095 19.4777 9.65892 19.0271L3.13178 12.5L9.65892 5.97286C10.1095 5.52226 10.1095 4.79168 9.65892 4.34108C9.20832 3.89047 8.47774 3.89047 8.02714 4.34108L0.684107 11.6841ZM21.5 11.3462L1.5 11.3462V13.6538L21.5 13.6538V11.3462Z" fill="white"/>
</svg>
