<svg width="201" height="204" viewBox="0 0 201 204" fill="none" xmlns="http://www.w3.org/2000/svg">
<g clip-path="url(#clip0_0_329)">
<path d="M80.75 21H20V81.75H80.75V21ZM70.625 71.625H30.125V31.125H70.625V71.625Z" fill="white"/>
<path d="M40.25 41.25H60.5V61.5H40.25V41.25ZM20 183H80.75V122.25H20V183ZM30.125 132.375H70.625V172.875H30.125V132.375Z" fill="white"/>
<path d="M40.25 142.5H60.5V162.75H40.25V142.5ZM121.25 21V81.75H182V21H121.25ZM171.875 71.625H131.375V31.125H171.875V71.625Z" fill="white"/>
<path d="M141.5 41.25H161.75V61.5H141.5V41.25ZM40.25 91.875H20V112.125H50.375V102H40.25V91.875ZM90.875 112.125H111.125V132.375H90.875V112.125ZM50.375 91.875H70.625V102H50.375V91.875ZM111.125 142.5H90.875V152.625H101V162.75H111.125V152.625V142.5ZM80.75 91.875V102H70.625V112.125H90.875V91.875H80.75ZM101 61.5H111.125V81.75H101V61.5ZM111.125 102V112.125H131.375V91.875H101V102H111.125ZM90.875 81.75H101V91.875H90.875V81.75ZM111.125 162.75H131.375V183H111.125V162.75ZM90.875 162.75H101V183H90.875V162.75ZM111.125 132.375H121.25V142.5H111.125V132.375ZM111.125 51.375V31.125H101V21H90.875V61.5H101V51.375H111.125ZM141.5 162.75H151.625V183H141.5V162.75ZM141.5 142.5H161.75V152.625H141.5V142.5ZM131.375 152.625H141.5V162.75H131.375V152.625ZM121.25 142.5H131.375V152.625H121.25V142.5ZM161.75 122.25V132.375H171.875V142.5H182V122.25H171.875H161.75ZM171.875 152.625H161.75V183H182V162.75H171.875V152.625ZM121.25 122.25V132.375H151.625V112.125H131.375V122.25H121.25ZM141.5 91.875V102H161.75V112.125H182V91.875H161.75H141.5Z" fill="white"/>
</g>
<path d="M137 1H200V55.5" stroke="white" stroke-width="1.5" stroke-linecap="round"/>
<path d="M64 1H1V55.5" stroke="white" stroke-width="1.5" stroke-linecap="round"/>
<path d="M64 202.5L1 202.5L1 148" stroke="white" stroke-width="1.5" stroke-linecap="round"/>
<path d="M137 202.5L200 202.5L200 148" stroke="white" stroke-width="1.5" stroke-linecap="round"/>
<defs>
<clipPath id="clip0_0_329">
<rect width="162" height="162" fill="white" transform="translate(20 21)"/>
</clipPath>
</defs>
</svg>
