<svg width="24" height="24" viewBox="0 0 24 24" fill="none" xmlns="http://www.w3.org/2000/svg">
<path d="M12.0002 1.20004C13.4324 1.20004 14.8059 1.76897 15.8186 2.78167C16.8313 3.79436 17.4002 5.16787 17.4002 6.60004C17.4002 8.03221 16.8313 9.40572 15.8186 10.4184C14.8059 11.4311 13.4324 12 12.0002 12C10.568 12 9.19452 11.4311 8.18182 10.4184C7.16912 9.40572 6.6002 8.03221 6.6002 6.60004C6.6002 5.16787 7.16912 3.79436 8.18182 2.78167C9.19452 1.76897 10.568 1.20004 12.0002 1.20004ZM12.0002 14.7C17.9672 14.7 22.8002 17.1165 22.8002 20.1V22.8H1.2002V20.1C1.2002 17.1165 6.0332 14.7 12.0002 14.7Z" fill="#2CBBD2"/>
</svg>
