<svg width="50" height="51" viewBox="0 0 50 51" fill="none" xmlns="http://www.w3.org/2000/svg">
<rect y="0.299438" width="50" height="50" rx="25" fill="#D5F1F6"/>
<path d="M25 15.2994C26.3261 15.2994 27.5979 15.8262 28.5355 16.7639C29.4732 17.7016 30 18.9734 30 20.2994C30 21.6255 29.4732 22.8973 28.5355 23.835C27.5979 24.7727 26.3261 25.2994 25 25.2994C23.6739 25.2994 22.4021 24.7727 21.4645 23.835C20.5268 22.8973 20 21.6255 20 20.2994C20 18.9734 20.5268 17.7016 21.4645 16.7639C22.4021 15.8262 23.6739 15.2994 25 15.2994ZM25 27.7994C30.525 27.7994 35 30.0369 35 32.7994V35.2994H15V32.7994C15 30.0369 19.475 27.7994 25 27.7994Z" fill="url(#paint0_linear_0_347)"/>
<defs>
<linearGradient id="paint0_linear_0_347" x1="15" y1="25.2994" x2="35" y2="25.2994" gradientUnits="userSpaceOnUse">
<stop stop-color="#157C8C"/>
<stop offset="1" stop-color="#2CBBD2"/>
</linearGradient>
</defs>
</svg>
