<svg width="162" height="162" viewBox="0 0 162 162" fill="none" xmlns="http://www.w3.org/2000/svg">
<g clip-path="url(#clip0_0_330)">
<path d="M60.75 0H0V60.75H60.75V0ZM50.625 50.625H10.125V10.125H50.625V50.625Z" fill="white"/>
<path d="M20.25 20.25H40.5V40.5H20.25V20.25ZM0 162H60.75V101.25H0V162ZM10.125 111.375H50.625V151.875H10.125V111.375Z" fill="white"/>
<path d="M20.25 121.5H40.5V141.75H20.25V121.5ZM101.25 0V60.75H162V0H101.25ZM151.875 50.625H111.375V10.125H151.875V50.625Z" fill="white"/>
<path d="M121.5 20.25H141.75V40.5H121.5V20.25ZM20.25 70.875H0V91.125H30.375V81H20.25V70.875ZM70.875 91.125H91.125V111.375H70.875V91.125ZM30.375 70.875H50.625V81H30.375V70.875ZM91.125 121.5H70.875V131.625H81V141.75H91.125V131.625V121.5ZM60.75 70.875V81H50.625V91.125H70.875V70.875H60.75ZM81 40.5H91.125V60.75H81V40.5ZM91.125 81V91.125H111.375V70.875H81V81H91.125ZM70.875 60.75H81V70.875H70.875V60.75ZM91.125 141.75H111.375V162H91.125V141.75ZM70.875 141.75H81V162H70.875V141.75ZM91.125 111.375H101.25V121.5H91.125V111.375ZM91.125 30.375V10.125H81V0H70.875V40.5H81V30.375H91.125ZM121.5 141.75H131.625V162H121.5V141.75ZM121.5 121.5H141.75V131.625H121.5V121.5ZM111.375 131.625H121.5V141.75H111.375V131.625ZM101.25 121.5H111.375V131.625H101.25V121.5ZM141.75 101.25V111.375H151.875V121.5H162V101.25H151.875H141.75ZM151.875 131.625H141.75V162H162V141.75H151.875V131.625ZM101.25 101.25V111.375H131.625V91.125H111.375V101.25H101.25ZM121.5 70.875V81H141.75V91.125H162V70.875H141.75H121.5Z" fill="white"/>
</g>
<defs>
<clipPath id="clip0_0_330">
<rect width="162" height="162" fill="white"/>
</clipPath>
</defs>
</svg>
